{
  "version": "1.1.6",
  "modules": [
    {
      "id": 14,
      "plugin": "Core",
      "version": "1.1.6",
      "model": "AudioInterface",
      "params": [],
      "leftModuleId": 106,
      "rightModuleId": 69,
      "data": {
        "audio": {
          "driver": 5,
          "deviceName": "Existential Audio Inc.: BlackHole 16ch",
          "offset": 0,
          "maxChannels": 8,
          "sampleRate": 44100,
          "blockSize": 256
        }
      },
      "pos": [
        15,
        1
      ]
    },
    {
      "id": 17,
      "plugin": "Valley",
      "version": "1.1.7",
      "model": "Topograph",
      "params": [
        {
          "id": 0,
          "value": 0.0
        },
        {
          "id": 1,
          "value": 0.0
        },
        {
          "id": 2,
          "value": 0.0
        },
        {
          "id": 3,
          "value": 0.0
        },
        {
          "id": 4,
          "value": 0.0
        },
        {
          "id": 5,
          "value": 0.0
        },
        {
          "id": 6,
          "value": 0.0
        },
        {
          "id": 7,
          "value": 0.0
        },
        {
          "id": 8,
          "value": 0.0
        },
        {
          "id": 9,
          "value": 0.0
        }
      ],
      "leftModuleId": 69,
      "rightModuleId": 49,
      "data": {
        "sequencerMode": 1,
        "triggerOutputMode": 0,
        "accOutputMode": 0,
        "extClockResolution": 2,
        "chaosKnobMode": 0,
        "runMode": 0,
        "panelStyle": 0,
        "running": 1
      },
      "pos": [
        35,
        1
      ]
    },
    {
      "id": 26,
      "plugin": "LomasModules",
      "version": "1.0.9",
      "model": "AdvancedSampler",
      "params": [
        {
          "id": 0,
          "value": 0.664499462
        },
        {
          "id": 1,
          "value": -2.0
        },
        {
          "id": 2,
          "value": 0.0
        },
        {
          "id": 3,
          "value": 0.0
        },
        {
          "id": 4,
          "value": 0.0
        },
        {
          "id": 5,
          "value": 1.0
        },
        {
          "id": 6,
          "value": 0.0
        },
        {
          "id": 7,
          "value": 0.0
        },
        {
          "id": 8,
          "value": 0.0
        },
        {
          "id": 9,
          "value": 0.0
        }
      ],
      "leftModuleId": 103,
      "rightModuleId": 53,
      "data": {
        "directory": "/Users/zjb-s/Desktop/stocksamples/909",
        "loop": false,
        "hold_envelope": false,
        "playing": false,
        "read_position": 0.0,
        "interpolation_mode": 2,
        "slice": false
      },
      "pos": [
        96,
        0
      ]
    },
    {
      "id": 32,
      "plugin": "Core",
      "version": "1.1.6",
      "model": "MIDICCToCVInterface",
      "params": [],
      "leftModuleId": 13,
      "rightModuleId": 104,
      "data": {
        "ccs": [
          17,
          18,
          19,
          20,
          33,
          34,
          35,
          36,
          25,
          26,
          27,
          28,
          45,
          46,
          47,
          48
        ],
        "values": [
          0,
          0,
          0,
          0,
          0,
          0,
          0,
          0,
          0,
          0,
          0,
          0,
          0,
          71,
          64,
          94,
          50,
          54,
          56,
          25,
          127,
          48,
          43,
          42,
          58,
          64,
          33,
          32,
          57,
          19,
          37,
          60,
          45,
          31,
          32,
          127,
          127,
          0,
          0,
          0,
          0,
          0,
          0,
          0,
          0,
          0,
          0,
          0,
          113,
          0,
          0,
          0,
          0,
          0,
          0,
          0,
          0,
          0,
          0,
          0,
          0,
          0,
          0,
          0,
          0,
          0,
          0,
          0,
          0,
          0,
          0,
          0,
          0,
          0,
          0,
          0,
          0,
          0,
          0,
          0,
          0,
          0,
          0,
          0,
          0,
          0,
          0,
          0,
          0,
          127,
          127,
          127,
          0,
          0,
          0,
          0,
          0,
          0,
          0,
          0,
          0,
          0,
          0,
          0,
          0,
          0,
          0,
          0,
          0,
          0,
          0,
          0,
          0,
          0,
          0,
          0,
          0,
          0,
          0,
          0,
          0,
          0,
          0,
          0,
          0,
          0,
          0,
          0
        ],
        "midi": {
          "driver": 1,
          "deviceName": "Launch Control XL",
          "channel": -1
        }
      },
      "pos": [
        25,
        0
      ]
    },
    {
      "id": 49,
      "plugin": "Valley",
      "version": "1.1.7",
      "model": "Topograph",
      "params": [
        {
          "id": 0,
          "value": 0.0
        },
        {
          "id": 1,
          "value": 0.0
        },
        {
          "id": 2,
          "value": 0.478500009
        },
        {
          "id": 3,
          "value": 1.0
        },
        {
          "id": 4,
          "value": 1.0
        },
        {
          "id": 5,
          "value": 0.228999987
        },
        {
          "id": 6,
          "value": 0.0
        },
        {
          "id": 7,
          "value": 0.0
        },
        {
          "id": 8,
          "value": 0.0
        },
        {
          "id": 9,
          "value": 0.352349848
        }
      ],
      "leftModuleId": 17,
      "rightModuleId": 98,
      "data": {
        "sequencerMode": 2,
        "triggerOutputMode": 0,
        "accOutputMode": 1,
        "extClockResolution": 0,
        "chaosKnobMode": 0,
        "runMode": 0,
        "panelStyle": 0,
        "running": 1
      },
      "pos": [
        51,
        1
      ]
    },
    {
      "id": 53,
      "plugin": "LomasModules",
      "version": "1.0.9",
      "model": "AdvancedSampler",
      "params": [
        {
          "id": 0,
          "value": 0.380999058
        },
        {
          "id": 1,
          "value": -2.0
        },
        {
          "id": 2,
          "value": 0.0
        },
        {
          "id": 3,
          "value": 0.0
        },
        {
          "id": 4,
          "value": 0.0
        },
        {
          "id": 5,
          "value": 1.0
        },
        {
          "id": 6,
          "value": 0.0
        },
        {
          "id": 7,
          "value": 0.0
        },
        {
          "id": 8,
          "value": 0.0
        },
        {
          "id": 9,
          "value": 0.0
        }
      ],
      "leftModuleId": 26,
      "rightModuleId": 108,
      "data": {
        "directory": "/Users/zjb-s/Desktop/stocksamples/909",
        "loop": false,
        "hold_envelope": false,
        "playing": true,
        "read_position": 0.174125387,
        "interpolation_mode": 2,
        "slice": false
      },
      "pos": [
        106,
        0
      ]
    },
    {
      "id": 60,
      "plugin": "Bogaudio",
      "version": "1.1.37",
      "model": "Bogaudio-Pressor",
      "params": [
        {
          "id": 0,
          "value": 0.271499962
        },
        {
          "id": 1,
          "value": 0.571500063
        },
        {
          "id": 2,
          "value": 0.316229999
        },
        {
          "id": 3,
          "value": 0.0477301031
        },
        {
          "id": 4,
          "value": 0.350999981
        },
        {
          "id": 5,
          "value": 0.0
        },
        {
          "id": 6,
          "value": 0.309999913
        },
        {
          "id": 7,
          "value": 1.0
        },
        {
          "id": 8,
          "value": 1.0
        },
        {
          "id": 9,
          "value": 1.0
        }
      ],
      "rightModuleId": 13,
      "data": {
        "threshold_range": 1.0
      },
      "pos": [
        0,
        0
      ]
    },
    {
      "id": 69,
      "plugin": "VCV-Host",
      "version": "1.3.1",
      "model": "Host-FX",
      "params": [],
      "leftModuleId": 14,
      "rightModuleId": 17,
      "data": {
        "parameterIds": [
          -1,
          -1,
          -1,
          -1,
          -1,
          -1,
          -1,
          -1,
          -1,
          -1,
          -1,
          -1,
          -1,
          -1,
          -1,
          -1
        ],
        "pluginPath": "/Library/Audio/Plug-ins/VST/ValhallaRoom_x64.vst",
        "pluginName": "ValhallaRoom_x64",
        "subPluginId": 0,
        "programNumber": 0,
        "pluginState": "VkMyIboCAAA8P3htbCB2ZXJzaW9uPSIxLjAiIGVuY29kaW5nPSJVVEYtOCI/PiA8VmFsaGFsbGFSb29tIHBsdWdpblZlcnNpb249IjEuNi41IiBwcmVzZXROYW1lPSJMYXJnZUFtYmllbmNlIiBtaXg9IjEuMCIgcHJlZGVsYXk9IjAuMDE5OTk5OTk5NTUyOTY1MTYiIGRlY2F5PSIwLjAyNjkyNjkyNzI2ODUwNTEiIEhpZ2hDdXQ9IjAuMzk2NjQ0Mjk0MjYxOTMyNCIgZWFybHlMYXRlTWl4PSIwLjMxNzk5OTk4ODc5NDMyNjgiIGxhdGVTaXplPSIwLjg2MDAwMDAxNDMwNTExNDciIGxhdGVDcm9zcz0iMC4yODAwMDAwMDExOTIwOTI5IiBsYXRlTW9kUmF0ZT0iMC4xMjUyNTI1Mjk5Nzg3NTIxIiBsYXRlTW9kRGVwdGg9IjAuMjA5OTk5OTkzNDQzNDg5MSIgUlRCYXNzTXVsdGlwbHk9IjAuMjUzMzMzMzMwMTU0NDE4OSIgUlRYb3Zlcj0iMC4wNjk2OTY5NzAyODM5ODUxNCIgUlRIaWdoTXVsdGlwbHk9IjAuODMzMzMzMzEzNDY1MTE4NCIgUlRIaWdoWG92ZXI9IjAuMjM3NTgzODkwNTU3Mjg5MSIgZWFybHlTaXplPSIwLjAzOTAzOTAzODEyMTcwMDI5IiBlYXJseUNyb3NzPSIwLjAiIGVhcmx5TW9kUmF0ZT0iMC4yMDYwNjA2MDMyNjA5OTQiIGVhcmx5TW9kRGVwdGg9IjAuMCIgZWFybHlTZW5kPSIwLjAiIGRpZmZ1c2lvbj0iMS4wIiB0eXBlPSIwLjMzMzMzMzM0MzI2NzQ0MDgiIG1peExvY2s9IjAiIHVpV2lkdGg9IjczNSIgdWlIZWlnaHQ9IjQ2MCIvPgA=",
        "busChannelMappings": [
          [
            [
              0,
              1
            ]
          ],
          [
            [
              0,
              1
            ]
          ]
        ],
        "blockSize": 256,
        "bypass": false,
        "worker": true
      },
      "pos": [
        25,
        1
      ]
    },
    {
      "id": 70,
      "plugin": "Bogaudio",
      "version": "1.1.37",
      "model": "Bogaudio-Mix8x",
      "params": [
        {
          "id": 0,
          "value": 0.0
        },
        {
          "id": 1,
          "value": 0.0
        },
        {
          "id": 2,
          "value": 0.0
        },
        {
          "id": 3,
          "value": 0.0
        },
        {
          "id": 4,
          "value": 0.0
        },
        {
          "id": 5,
          "value": 1.0
        },
        {
          "id": 6,
          "value": 0.0
        },
        {
          "id": 7,
          "value": 0.0
        },
        {
          "id": 8,
          "value": 0.0
        },
        {
          "id": 9,
          "value": 0.0
        },
        {
          "id": 10,
          "value": 0.64749831
        },
        {
          "id": 11,
          "value": 0.0
        },
        {
          "id": 12,
          "value": 0.0
        },
        {
          "id": 13,
          "value": 0.0
        },
        {
          "id": 14,
          "value": 0.0
        },
        {
          "id": 15,
          "value": 0.0
        },
        {
          "id": 16,
          "value": 0.0
        },
        {
          "id": 17,
          "value": 0.774000466
        },
        {
          "id": 18,
          "value": 0.0
        },
        {
          "id": 19,
          "value": 0.0
        },
        {
          "id": 20,
          "value": 0.0
        },
        {
          "id": 21,
          "value": 0.0
        },
        {
          "id": 22,
          "value": 0.0
        },
        {
          "id": 23,
          "value": 0.0
        },
        {
          "id": 24,
          "value": 0.0
        },
        {
          "id": 25,
          "value": 0.0
        },
        {
          "id": 26,
          "value": 0.0
        },
        {
          "id": 27,
          "value": 0.0
        },
        {
          "id": 28,
          "value": 0.0
        },
        {
          "id": 29,
          "value": 0.0
        },
        {
          "id": 30,
          "value": 0.0
        },
        {
          "id": 31,
          "value": 0.830500364
        },
        {
          "id": 32,
          "value": 0.0
        },
        {
          "id": 33,
          "value": 0.0
        },
        {
          "id": 34,
          "value": 0.0
        },
        {
          "id": 35,
          "value": 0.0
        },
        {
          "id": 36,
          "value": 0.0
        },
        {
          "id": 37,
          "value": 0.0
        },
        {
          "id": 38,
          "value": 0.688499689
        },
        {
          "id": 39,
          "value": 0.0
        },
        {
          "id": 40,
          "value": 0.0
        },
        {
          "id": 41,
          "value": 0.0
        },
        {
          "id": 42,
          "value": 0.0
        },
        {
          "id": 43,
          "value": 0.0
        },
        {
          "id": 44,
          "value": 0.0
        },
        {
          "id": 45,
          "value": 0.0
        },
        {
          "id": 46,
          "value": 0.0
        },
        {
          "id": 47,
          "value": 0.0
        },
        {
          "id": 48,
          "value": 0.0
        },
        {
          "id": 49,
          "value": 0.0
        },
        {
          "id": 50,
          "value": 0.0
        },
        {
          "id": 51,
          "value": 0.0
        },
        {
          "id": 52,
          "value": 0.0
        },
        {
          "id": 53,
          "value": 0.0
        },
        {
          "id": 54,
          "value": 0.0
        },
        {
          "id": 55,
          "value": 0.0
        },
        {
          "id": 56,
          "value": 0.891000152
        },
        {
          "id": 57,
          "value": 0.800000012
        }
      ],
      "leftModuleId": 71,
      "data": {
        "skin": "dark"
      },
      "pos": [
        110,
        1
      ]
    },
    {
      "id": 71,
      "plugin": "Bogaudio",
      "version": "1.1.37",
      "model": "Bogaudio-Mix8",
      "params": [
        {
          "id": 0,
          "value": 0.906000257
        },
        {
          "id": 1,
          "value": 0.0
        },
        {
          "id": 2,
          "value": 0.0
        },
        {
          "id": 3,
          "value": 0.909090936
        },
        {
          "id": 4,
          "value": 0.0
        },
        {
          "id": 5,
          "value": 0.0
        },
        {
          "id": 6,
          "value": 0.909090936
        },
        {
          "id": 7,
          "value": 0.0
        },
        {
          "id": 8,
          "value": 0.0
        },
        {
          "id": 9,
          "value": 0.909090936
        },
        {
          "id": 10,
          "value": 0.0
        },
        {
          "id": 11,
          "value": 0.0
        },
        {
          "id": 12,
          "value": 0.909090936
        },
        {
          "id": 13,
          "value": 0.0
        },
        {
          "id": 14,
          "value": 0.0
        },
        {
          "id": 15,
          "value": 0.909090936
        },
        {
          "id": 16,
          "value": 0.0
        },
        {
          "id": 17,
          "value": 0.0
        },
        {
          "id": 18,
          "value": 0.909090936
        },
        {
          "id": 19,
          "value": 0.0
        },
        {
          "id": 20,
          "value": 0.0
        },
        {
          "id": 21,
          "value": 0.0
        },
        {
          "id": 22,
          "value": 0.0
        },
        {
          "id": 23,
          "value": 0.0
        },
        {
          "id": 24,
          "value": 0.909090936
        },
        {
          "id": 25,
          "value": 0.0
        },
        {
          "id": 26,
          "value": 0.0
        }
      ],
      "leftModuleId": 98,
      "rightModuleId": 70,
      "data": {
        "dim_decibels": 12.0,
        "poly_channel_offset": -1
      },
      "pos": [
        83,
        1
      ]
    },
    {
      "id": 98,
      "plugin": "Valley",
      "version": "1.1.7",
      "model": "Topograph",
      "params": [
        {
          "id": 0,
          "value": 0.0
        },
        {
          "id": 1,
          "value": 0.0
        },
        {
          "id": 2,
          "value": 0.0
        },
        {
          "id": 3,
          "value": 0.558999836
        },
        {
          "id": 4,
          "value": 0.668499947
        },
        {
          "id": 5,
          "value": 0.0
        },
        {
          "id": 6,
          "value": 0.0
        },
        {
          "id": 7,
          "value": 0.0
        },
        {
          "id": 8,
          "value": 0.0
        },
        {
          "id": 9,
          "value": 0.352349848
        }
      ],
      "leftModuleId": 49,
      "rightModuleId": 71,
      "data": {
        "sequencerMode": 1,
        "triggerOutputMode": 0,
        "accOutputMode": 1,
        "extClockResolution": 2,
        "chaosKnobMode": 0,
        "runMode": 0,
        "panelStyle": 0,
        "running": 1
      },
      "pos": [
        67,
        1
      ]
    },
    {
      "id": 99,
      "plugin": "AudibleInstruments",
      "version": "1.5.0",
      "model": "Plaits",
      "params": [
        {
          "id": 0,
          "value": 0.0
        },
        {
          "id": 1,
          "value": 0.0
        },
        {
          "id": 2,
          "value": -4.0
        },
        {
          "id": 3,
          "value": 0.647498846
        },
        {
          "id": 4,
          "value": 0.588999867
        },
        {
          "id": 5,
          "value": 0.0
        },
        {
          "id": 6,
          "value": 0.0
        },
        {
          "id": 7,
          "value": 0.224999875
        },
        {
          "id": 8,
          "value": 1.0
        },
        {
          "id": 9,
          "value": 0.5
        },
        {
          "id": 10,
          "value": 0.5
        }
      ],
      "leftModuleId": 102,
      "rightModuleId": 100,
      "data": {
        "lowCpu": false,
        "model": 13
      },
      "pos": [
        60,
        0
      ]
    },
    {
      "id": 100,
      "plugin": "AudibleInstruments",
      "version": "1.5.0",
      "model": "Plaits",
      "params": [
        {
          "id": 0,
          "value": 0.0
        },
        {
          "id": 1,
          "value": 0.0
        },
        {
          "id": 2,
          "value": -4.0
        },
        {
          "id": 3,
          "value": 0.362999976
        },
        {
          "id": 4,
          "value": 0.722499847
        },
        {
          "id": 5,
          "value": 0.0
        },
        {
          "id": 6,
          "value": 0.0
        },
        {
          "id": 7,
          "value": 0.227999792
        },
        {
          "id": 8,
          "value": 1.0
        },
        {
          "id": 9,
          "value": 0.5
        },
        {
          "id": 10,
          "value": 0.5
        }
      ],
      "leftModuleId": 99,
      "rightModuleId": 103,
      "data": {
        "lowCpu": false,
        "model": 14
      },
      "pos": [
        72,
        0
      ]
    },
    {
      "id": 101,
      "plugin": "AudibleInstruments",
      "version": "1.5.0",
      "model": "Stages",
      "params": [
        {
          "id": 0,
          "value": 0.5
        },
        {
          "id": 1,
          "value": 0.5
        },
        {
          "id": 2,
          "value": 0.5
        },
        {
          "id": 3,
          "value": 1.0
        },
        {
          "id": 4,
          "value": 1.0
        },
        {
          "id": 5,
          "value": 1.0
        },
        {
          "id": 6,
          "value": 0.0
        },
        {
          "id": 7,
          "value": 0.0
        },
        {
          "id": 8,
          "value": 0.0
        },
        {
          "id": 9,
          "value": 0.0
        },
        {
          "id": 10,
          "value": 0.0
        },
        {
          "id": 11,
          "value": 0.0
        },
        {
          "id": 12,
          "value": 0.5
        },
        {
          "id": 13,
          "value": 0.5
        },
        {
          "id": 14,
          "value": 0.5
        },
        {
          "id": 15,
          "value": 0.5
        },
        {
          "id": 16,
          "value": 0.5
        },
        {
          "id": 17,
          "value": 0.5
        }
      ],
      "leftModuleId": 104,
      "rightModuleId": 102,
      "data": {
        "configurations": [
          {
            "type": 0,
            "loop": false
          },
          {
            "type": 0,
            "loop": false
          },
          {
            "type": 0,
            "loop": false
          },
          {
            "type": 0,
            "loop": false
          },
          {
            "type": 0,
            "loop": false
          },
          {
            "type": 0,
            "loop": false
          }
        ]
      },
      "pos": [
        38,
        0
      ]
    },
    {
      "id": 102,
      "plugin": "Fundamental",
      "version": "1.4.0",
      "model": "8vert",
      "params": [
        {
          "id": 0,
          "value": 0.150000036
        },
        {
          "id": 1,
          "value": 0.381000072
        },
        {
          "id": 2,
          "value": 0.717000008
        },
        {
          "id": 3,
          "value": 0.0
        },
        {
          "id": 4,
          "value": 0.0
        },
        {
          "id": 5,
          "value": 0.0
        },
        {
          "id": 6,
          "value": 0.0
        },
        {
          "id": 7,
          "value": 0.0
        }
      ],
      "leftModuleId": 101,
      "rightModuleId": 99,
      "pos": [
        52,
        0
      ]
    },
    {
      "id": 103,
      "plugin": "AudibleInstruments",
      "version": "1.5.0",
      "model": "Plaits",
      "params": [
        {
          "id": 0,
          "value": 0.0
        },
        {
          "id": 1,
          "value": 0.0
        },
        {
          "id": 2,
          "value": -1.63599908
        },
        {
          "id": 3,
          "value": 0.530500293
        },
        {
          "id": 4,
          "value": 0.0989999697
        },
        {
          "id": 5,
          "value": 0.0
        },
        {
          "id": 6,
          "value": 0.816999912
        },
        {
          "id": 7,
          "value": 0.0
        },
        {
          "id": 8,
          "value": 1.0
        },
        {
          "id": 9,
          "value": 0.5
        },
        {
          "id": 10,
          "value": 0.5
        }
      ],
      "leftModuleId": 100,
      "rightModuleId": 26,
      "data": {
        "lowCpu": false,
        "model": 15
      },
      "pos": [
        84,
        0
      ]
    },
    {
      "id": 104,
      "plugin": "Bogaudio",
      "version": "1.1.37",
      "model": "Bogaudio-Offset",
      "params": [
        {
          "id": 0,
          "value": 0.0709999651
        },
        {
          "id": 1,
          "value": 0.316229999
        }
      ],
      "leftModuleId": 32,
      "rightModuleId": 101,
      "data": {
        "disableOutputLimit": false,
        "offset_first": false
      },
      "pos": [
        35,
        0
      ]
    },
    {
      "id": 108,
      "plugin": "VultModulesFree",
      "version": "1.19.1",
      "model": "Trummor2",
      "params": [
        {
          "id": 0,
          "value": -0.100000001
        },
        {
          "id": 1,
          "value": 0.227000102
        },
        {
          "id": 2,
          "value": 0.00599998096
        },
        {
          "id": 3,
          "value": 1.0
        },
        {
          "id": 4,
          "value": 1.0
        },
        {
          "id": 5,
          "value": 0.745000005
        },
        {
          "id": 6,
          "value": 0.0
        },
        {
          "id": 7,
          "value": 0.0
        },
        {
          "id": 8,
          "value": 0.0
        },
        {
          "id": 9,
          "value": 0.0
        },
        {
          "id": 10,
          "value": 0.0
        },
        {
          "id": 11,
          "value": 0.782500148
        },
        {
          "id": 12,
          "value": -0.100000001
        },
        {
          "id": 13,
          "value": -0.184000015
        },
        {
          "id": 14,
          "value": 0.0
        },
        {
          "id": 15,
          "value": 0.340099543
        },
        {
          "id": 16,
          "value": 0.42599991
        },
        {
          "id": 17,
          "value": 1.0
        },
        {
          "id": 18,
          "value": 0.0
        },
        {
          "id": 19,
          "value": 0.0
        },
        {
          "id": 20,
          "value": 0.0299999937
        },
        {
          "id": 21,
          "value": 0.0
        },
        {
          "id": 22,
          "value": 0.0
        },
        {
          "id": 23,
          "value": 0.554999888
        },
        {
          "id": 24,
          "value": 0.0
        },
        {
          "id": 25,
          "value": 1.0
        },
        {
          "id": 26,
          "value": 0.988000035
        },
        {
          "id": 27,
          "value": 0.990999997
        },
        {
          "id": 28,
          "value": 1.0
        },
        {
          "id": 29,
          "value": 0.0
        },
        {
          "id": 30,
          "value": 0.0
        },
        {
          "id": 31,
          "value": 0.0
        },
        {
          "id": 32,
          "value": 0.0
        }
      ],
      "leftModuleId": 53,
      "data": {
        "mod_a": 8,
        "mod_b": 20,
        "mod_c": 0,
        "mod_d": 15,
        "mk2": true
      },
      "pos": [
        116,
        0
      ]
    },
    {
      "id": 13,
      "plugin": "Core",
      "version": "1.1.6",
      "model": "MIDICCToCVInterface",
      "params": [],
      "leftModuleId": 60,
      "rightModuleId": 32,
      "data": {
        "ccs": [
          13,
          14,
          15,
          16,
          29,
          30,
          31,
          32,
          21,
          22,
          23,
          24,
          41,
          42,
          43,
          44
        ],
        "values": [
          0,
          0,
          0,
          0,
          0,
          0,
          0,
          0,
          0,
          0,
          0,
          0,
          0,
          71,
          64,
          94,
          50,
          54,
          56,
          25,
          127,
          48,
          43,
          42,
          58,
          64,
          33,
          32,
          57,
          19,
          37,
          60,
          45,
          31,
          32,
          127,
          127,
          0,
          0,
          0,
          0,
          0,
          0,
          0,
          0,
          0,
          0,
          0,
          113,
          0,
          0,
          0,
          0,
          0,
          0,
          0,
          0,
          0,
          0,
          0,
          0,
          0,
          0,
          0,
          0,
          0,
          0,
          0,
          0,
          0,
          0,
          0,
          0,
          0,
          0,
          0,
          0,
          0,
          0,
          0,
          0,
          0,
          0,
          0,
          0,
          0,
          0,
          0,
          0,
          127,
          127,
          127,
          0,
          0,
          0,
          0,
          0,
          0,
          0,
          0,
          0,
          0,
          0,
          0,
          0,
          0,
          0,
          0,
          0,
          0,
          0,
          0,
          0,
          0,
          0,
          0,
          0,
          0,
          0,
          0,
          0,
          0,
          0,
          0,
          0,
          0,
          0,
          0
        ],
        "midi": {
          "driver": 1,
          "deviceName": "Launch Control XL",
          "channel": -1
        }
      },
      "pos": [
        15,
        0
      ]
    },
    {
      "id": 106,
      "plugin": "VultModulesFree",
      "version": "1.19.1",
      "model": "Wolv",
      "params": [
        {
          "id": 0,
          "value": 0.811000109
        },
        {
          "id": 1,
          "value": 0.0
        },
        {
          "id": 2,
          "value": 0.585499942
        },
        {
          "id": 3,
          "value": 0.297999918
        },
        {
          "id": 4,
          "value": 0.0
        },
        {
          "id": 5,
          "value": 0.0
        }
      ],
      "rightModuleId": 14,
      "pos": [
        5,
        1
      ]
    }
  ],
  "cables": [
    {
      "id": 106,
      "outputModuleId": 32,
      "outputId": 3,
      "inputModuleId": 17,
      "inputId": 2,
      "color": "#c9b70e"
    },
    {
      "id": 107,
      "outputModuleId": 32,
      "outputId": 7,
      "inputModuleId": 17,
      "inputId": 3,
      "color": "#0c8e15"
    },
    {
      "id": 108,
      "outputModuleId": 32,
      "outputId": 11,
      "inputModuleId": 17,
      "inputId": 4,
      "color": "#c91847"
    },
    {
      "id": 185,
      "outputModuleId": 60,
      "outputId": 1,
      "inputModuleId": 14,
      "inputId": 0,
      "color": "#c9b70e"
    },
    {
      "id": 186,
      "outputModuleId": 60,
      "outputId": 2,
      "inputModuleId": 14,
      "inputId": 1,
      "color": "#0c8e15"
    },
    {
      "id": 195,
      "outputModuleId": 49,
      "outputId": 5,
      "inputModuleId": 17,
      "inputId": 1,
      "color": "#0986ad"
    },
    {
      "id": 212,
      "outputModuleId": 49,
      "outputId": 4,
      "inputModuleId": 17,
      "inputId": 0,
      "color": "#0986ad"
    },
    {
      "id": 220,
      "outputModuleId": 32,
      "outputId": 4,
      "inputModuleId": 53,
      "inputId": 1,
      "color": "#0c8e15"
    },
    {
      "id": 233,
      "outputModuleId": 71,
      "outputId": 0,
      "inputModuleId": 60,
      "inputId": 0,
      "color": "#0986ad"
    },
    {
      "id": 234,
      "outputModuleId": 71,
      "outputId": 1,
      "inputModuleId": 60,
      "inputId": 4,
      "color": "#c9b70e"
    },
    {
      "id": 235,
      "outputModuleId": 70,
      "outputId": 0,
      "inputModuleId": 69,
      "inputId": 16,
      "color": "#0c8e15"
    },
    {
      "id": 236,
      "outputModuleId": 69,
      "outputId": 0,
      "inputModuleId": 70,
      "inputId": 16,
      "color": "#c91847"
    },
    {
      "id": 237,
      "outputModuleId": 69,
      "outputId": 1,
      "inputModuleId": 70,
      "inputId": 17,
      "color": "#0986ad"
    },
    {
      "id": 270,
      "outputModuleId": 32,
      "outputId": 13,
      "inputModuleId": 71,
      "inputId": 15,
      "color": "#c91847"
    },
    {
      "id": 271,
      "outputModuleId": 32,
      "outputId": 14,
      "inputModuleId": 71,
      "inputId": 18,
      "color": "#0986ad"
    },
    {
      "id": 274,
      "outputModuleId": 32,
      "outputId": 1,
      "inputModuleId": 49,
      "inputId": 6,
      "color": "#c91847"
    },
    {
      "id": 283,
      "outputModuleId": 70,
      "outputId": 1,
      "inputModuleId": 60,
      "inputId": 1,
      "color": "#c91847"
    },
    {
      "id": 287,
      "outputModuleId": 32,
      "outputId": 15,
      "inputModuleId": 71,
      "inputId": 24,
      "color": "#c91847"
    },
    {
      "id": 295,
      "outputModuleId": 49,
      "outputId": 4,
      "inputModuleId": 98,
      "inputId": 0,
      "color": "#0c8e15"
    },
    {
      "id": 300,
      "outputModuleId": 49,
      "outputId": 5,
      "inputModuleId": 98,
      "inputId": 1,
      "color": "#0c8e15"
    },
    {
      "id": 301,
      "outputModuleId": 17,
      "outputId": 0,
      "inputModuleId": 99,
      "inputId": 5,
      "color": "#0986ad"
    },
    {
      "id": 307,
      "outputModuleId": 32,
      "outputId": 12,
      "inputModuleId": 71,
      "inputId": 12,
      "color": "#0c8e15"
    },
    {
      "id": 308,
      "outputModuleId": 17,
      "outputId": 1,
      "inputModuleId": 100,
      "inputId": 5,
      "color": "#c91847"
    },
    {
      "id": 302,
      "outputModuleId": 99,
      "outputId": 0,
      "inputModuleId": 71,
      "inputId": 2,
      "color": "#c9b70e"
    },
    {
      "id": 310,
      "outputModuleId": 17,
      "outputId": 3,
      "inputModuleId": 101,
      "inputId": 11,
      "color": "#c9b70e"
    },
    {
      "id": 311,
      "outputModuleId": 101,
      "outputId": 5,
      "inputModuleId": 102,
      "inputId": 0,
      "color": "#c91847"
    },
    {
      "id": 312,
      "outputModuleId": 102,
      "outputId": 0,
      "inputModuleId": 99,
      "inputId": 4,
      "color": "#0986ad"
    },
    {
      "id": 316,
      "outputModuleId": 17,
      "outputId": 4,
      "inputModuleId": 101,
      "inputId": 10,
      "color": "#0986ad"
    },
    {
      "id": 317,
      "outputModuleId": 101,
      "outputId": 4,
      "inputModuleId": 102,
      "inputId": 1,
      "color": "#c9b70e"
    },
    {
      "id": 318,
      "outputModuleId": 102,
      "outputId": 1,
      "inputModuleId": 100,
      "inputId": 4,
      "color": "#0c8e15"
    },
    {
      "id": 319,
      "outputModuleId": 104,
      "outputId": 0,
      "inputModuleId": 101,
      "inputId": 5,
      "color": "#0986ad"
    },
    {
      "id": 320,
      "outputModuleId": 104,
      "outputId": 0,
      "inputModuleId": 101,
      "inputId": 4,
      "color": "#c9b70e"
    },
    {
      "id": 321,
      "outputModuleId": 104,
      "outputId": 0,
      "inputModuleId": 101,
      "inputId": 3,
      "color": "#0c8e15"
    },
    {
      "id": 322,
      "outputModuleId": 104,
      "outputId": 0,
      "inputModuleId": 101,
      "inputId": 2,
      "color": "#0986ad"
    },
    {
      "id": 323,
      "outputModuleId": 104,
      "outputId": 0,
      "inputModuleId": 101,
      "inputId": 1,
      "color": "#c9b70e"
    },
    {
      "id": 324,
      "outputModuleId": 104,
      "outputId": 0,
      "inputModuleId": 101,
      "inputId": 0,
      "color": "#0c8e15"
    },
    {
      "id": 329,
      "outputModuleId": 17,
      "outputId": 5,
      "inputModuleId": 101,
      "inputId": 9,
      "color": "#0986ad"
    },
    {
      "id": 330,
      "outputModuleId": 101,
      "outputId": 3,
      "inputModuleId": 102,
      "inputId": 2,
      "color": "#0c8e15"
    },
    {
      "id": 258,
      "outputModuleId": 26,
      "outputId": 1,
      "inputModuleId": 71,
      "inputId": 11,
      "color": "#c91847"
    },
    {
      "id": 343,
      "outputModuleId": 98,
      "outputId": 2,
      "inputModuleId": 26,
      "inputId": 8,
      "color": "#0986ad"
    },
    {
      "id": 306,
      "outputModuleId": 13,
      "outputId": 15,
      "inputModuleId": 71,
      "inputId": 9,
      "color": "#c9b70e"
    },
    {
      "id": 305,
      "outputModuleId": 13,
      "outputId": 14,
      "inputModuleId": 71,
      "inputId": 6,
      "color": "#0986ad"
    },
    {
      "id": 304,
      "outputModuleId": 13,
      "outputId": 13,
      "inputModuleId": 71,
      "inputId": 3,
      "color": "#c91847"
    },
    {
      "id": 303,
      "outputModuleId": 13,
      "outputId": 12,
      "inputModuleId": 71,
      "inputId": 0,
      "color": "#0c8e15"
    },
    {
      "id": 314,
      "outputModuleId": 13,
      "outputId": 9,
      "inputModuleId": 100,
      "inputId": 3,
      "color": "#0c8e15"
    },
    {
      "id": 71,
      "outputModuleId": 13,
      "outputId": 8,
      "inputModuleId": 99,
      "inputId": 3,
      "color": "#c91847"
    },
    {
      "id": 194,
      "outputModuleId": 13,
      "outputId": 7,
      "inputModuleId": 26,
      "inputId": 1,
      "color": "#c91847"
    },
    {
      "id": 315,
      "outputModuleId": 13,
      "outputId": 5,
      "inputModuleId": 100,
      "inputId": 7,
      "color": "#c91847"
    },
    {
      "id": 72,
      "outputModuleId": 13,
      "outputId": 4,
      "inputModuleId": 99,
      "inputId": 7,
      "color": "#0986ad"
    },
    {
      "id": 289,
      "outputModuleId": 13,
      "outputId": 3,
      "inputModuleId": 98,
      "inputId": 7,
      "color": "#0986ad"
    },
    {
      "id": 103,
      "outputModuleId": 13,
      "outputId": 2,
      "inputModuleId": 17,
      "inputId": 7,
      "color": "#c9b70e"
    },
    {
      "id": 102,
      "outputModuleId": 13,
      "outputId": 1,
      "inputModuleId": 17,
      "inputId": 6,
      "color": "#0986ad"
    },
    {
      "id": 73,
      "outputModuleId": 13,
      "outputId": 0,
      "inputModuleId": 17,
      "inputId": 5,
      "color": "#c9b70e"
    },
    {
      "id": 344,
      "outputModuleId": 13,
      "outputId": 11,
      "inputModuleId": 26,
      "inputId": 3,
      "color": "#c9b70e"
    },
    {
      "id": 345,
      "outputModuleId": 17,
      "outputId": 2,
      "inputModuleId": 103,
      "inputId": 5,
      "color": "#0c8e15"
    },
    {
      "id": 346,
      "outputModuleId": 103,
      "outputId": 0,
      "inputModuleId": 71,
      "inputId": 8,
      "color": "#c91847"
    },
    {
      "id": 347,
      "outputModuleId": 13,
      "outputId": 6,
      "inputModuleId": 103,
      "inputId": 1,
      "color": "#0986ad"
    },
    {
      "id": 349,
      "outputModuleId": 13,
      "outputId": 10,
      "inputModuleId": 103,
      "inputId": 3,
      "color": "#0c8e15"
    },
    {
      "id": 350,
      "outputModuleId": 102,
      "outputId": 2,
      "inputModuleId": 103,
      "inputId": 4,
      "color": "#c91847"
    },
    {
      "id": 348,
      "outputModuleId": 13,
      "outputId": 6,
      "inputModuleId": 103,
      "inputId": 7,
      "color": "#c9b70e"
    },
    {
      "id": 335,
      "outputModuleId": 100,
      "outputId": 0,
      "inputModuleId": 106,
      "inputId": 0,
      "color": "#c91847"
    },
    {
      "id": 336,
      "outputModuleId": 106,
      "outputId": 1,
      "inputModuleId": 71,
      "inputId": 5,
      "color": "#0986ad"
    },
    {
      "id": 351,
      "outputModuleId": 32,
      "outputId": 8,
      "inputModuleId": 53,
      "inputId": 3,
      "color": "#c9b70e"
    },
    {
      "id": 352,
      "outputModuleId": 53,
      "outputId": 1,
      "inputModuleId": 71,
      "inputId": 14,
      "color": "#0c8e15"
    },
    {
      "id": 353,
      "outputModuleId": 32,
      "outputId": 0,
      "inputModuleId": 49,
      "inputId": 5,
      "color": "#c91847"
    },
    {
      "id": 354,
      "outputModuleId": 49,
      "outputId": 0,
      "inputModuleId": 53,
      "inputId": 8,
      "color": "#0c8e15"
    },
    {
      "id": 355,
      "outputModuleId": 108,
      "outputId": 0,
      "inputModuleId": 71,
      "inputId": 17,
      "color": "#c91847"
    },
    {
      "id": 358,
      "outputModuleId": 32,
      "outputId": 5,
      "inputModuleId": 108,
      "inputId": 5,
      "color": "#0c8e15"
    },
    {
      "id": 357,
      "outputModuleId": 32,
      "outputId": 9,
      "inputModuleId": 108,
      "inputId": 3,
      "color": "#c9b70e"
    },
    {
      "id": 356,
      "outputModuleId": 49,
      "outputId": 1,
      "inputModuleId": 108,
      "inputId": 7,
      "color": "#0986ad"
    },
    {
      "id": 360,
      "outputModuleId": 32,
      "outputId": 9,
      "inputModuleId": 108,
      "inputId": 4,
      "color": "#0986ad"
    },
    {
      "id": 361,
      "outputModuleId": 49,
      "outputId": 1,
      "inputModuleId": 108,
      "inputId": 8,
      "color": "#c9b70e"
    }
  ]
}